<svg width="102" height="105" viewBox="0 0 102 105" fill="none" xmlns="http://www.w3.org/2000/svg">
<g filter="url(#filter0_d)">
<path d="M25.7519 35.1929C23.9444 33.7853 21.3233 34.1055 19.9091 35.9072C19.4245 36.5248 19.5347 37.419 20.1543 37.9021C20.4147 38.1048 20.7245 38.2034 21.0306 38.2034C21.4544 38.2034 21.8745 38.0158 22.1558 37.6577C22.6006 37.0894 23.4274 36.989 23.9957 37.4323C24.6153 37.9154 25.5125 37.8055 25.9971 37.1879C26.4837 36.5684 26.3735 35.676 25.7519 35.1929Z" fill="#FF699F"/>
<path d="M40.6324 35.3954C41.1171 34.7778 41.0068 33.8836 40.3872 33.4005C38.5777 31.9928 35.9585 32.313 34.5444 34.1147C34.0597 34.7323 34.17 35.6265 34.7896 36.1096C35.05 36.3124 35.3598 36.4109 35.6658 36.4109C36.0897 36.4109 36.5097 36.2233 36.7891 35.8652C37.2339 35.2969 38.0588 35.1965 38.629 35.6398C39.2525 36.1229 40.1477 36.013 40.6324 35.3954Z" fill="#FF699F"/>
<path d="M26.2633 45.8495C26.6853 49.2786 29.8272 51.7245 33.2675 51.3039C36.7078 50.8833 39.1616 47.7517 38.7396 44.3226L38.5781 43.0021C38.5078 42.4318 38.2188 41.9203 37.7627 41.566C37.3084 41.2117 36.742 41.0564 36.168 41.1246L27.9816 42.1268C27.4095 42.1969 26.8963 42.4849 26.5427 42.9395C26.1873 43.3923 26.0295 43.9569 26.0999 44.5291L26.2633 45.8495ZM35.8315 44.0308L35.9095 44.6693C36.1395 46.5429 34.7995 48.2537 32.9196 48.4829C31.0417 48.7141 29.3235 47.3765 29.0935 45.5028L29.0156 44.8644L35.8315 44.0308Z" fill="#FF699F"/>
<path d="M50.2861 15.1581C50.6738 12.1515 50.2329 9.09374 49.0411 6.54939C47.6422 3.56171 45.2606 1.33185 42.1567 0.100404C41.4743 -0.170514 40.697 0.121244 40.3624 0.771068C38.8286 3.74548 35.1241 5.86357 30.4521 6.43572L22.2068 7.4455C21.4256 7.54023 20.8687 8.25068 20.9656 9.02933C21.0606 9.80798 21.7734 10.3612 22.5546 10.2665L30.798 9.25667C35.814 8.64285 39.9614 6.43003 42.189 3.24343C46.8363 5.71579 47.9634 10.8992 47.4597 14.7963C46.9351 18.8468 44.7987 21.8932 42.2631 22.2039L14.526 25.597C12.2242 25.8793 10.5801 27.9746 10.8633 30.2689L11.2035 33.0349L9.0424 33.3002L6.87748 15.7227C6.76344 14.7925 7.01813 13.8718 7.59785 13.1329C8.17757 12.394 9.01009 11.9242 9.94524 11.8086L16.8639 10.9618C17.645 10.8651 18.202 10.1566 18.105 9.37792C18.01 8.59927 17.2972 8.04607 16.516 8.14079L9.59741 8.98765C6.10959 9.41581 3.61965 12.591 4.04731 16.0675L6.28636 34.238C4.84181 35.2648 4.0283 37.0229 4.25449 38.836C4.5586 41.2951 6.6589 43.1479 9.13933 43.1479C9.33321 43.1479 9.53468 43.1366 9.74566 43.1101L12.4048 42.7842L12.6652 44.9004C13.2126 49.3374 15.4592 53.2969 18.9927 56.0478C21.9749 58.3705 25.571 59.5982 29.2945 59.5982C29.9845 59.5982 30.6783 59.5565 31.3739 59.4712C33.5217 59.2079 35.5612 58.5505 37.4372 57.518C39.2524 56.5195 40.8509 55.2085 42.1852 53.6209C42.6908 53.0203 42.6129 52.1242 42.0085 51.6184C41.4059 51.1144 40.5069 51.1921 39.9994 51.7946C38.8913 53.1113 37.5646 54.2006 36.0573 55.0285C34.5025 55.8849 32.809 56.4305 31.0242 56.6484C27.3292 57.1012 23.6798 56.0914 20.747 53.8066C17.8142 51.5218 15.9477 48.2348 15.4934 44.5518L15.0582 41.0242C15.0126 40.651 14.8187 40.3099 14.5203 40.0769C14.2219 39.8439 13.8436 39.7397 13.4692 39.787L9.40163 40.2872C9.3085 40.2986 9.21916 40.3043 9.13743 40.3043C8.09394 40.3043 7.21011 39.5218 7.08086 38.4855C6.96681 37.561 7.48951 36.6686 8.35434 36.3182C8.35624 36.3182 8.35624 36.3163 8.35814 36.3163C8.5254 36.2481 8.70407 36.2007 8.88844 36.178L12.9636 35.6797C13.7448 35.585 14.2998 34.8745 14.2047 34.0959L13.6897 29.9184C13.5984 29.1796 14.1287 28.5032 14.87 28.4123L41.1911 25.1916L43.1603 41.1663C43.4188 43.2521 43.2097 45.3115 42.5407 47.2913C42.2898 48.0358 42.6908 48.841 43.4359 49.0911C43.586 49.1422 43.74 49.165 43.8921 49.165C44.487 49.165 45.042 48.7899 45.2435 48.1988C46.0513 45.8135 46.3022 43.3298 45.9924 40.8196L44.0042 24.6876C47.2221 23.5509 49.6702 19.9172 50.2861 15.1581Z" fill="#FF699F"/>
<path d="M78.0024 74.8301C78.5726 74.3868 79.3975 74.4872 79.8423 75.0556C80.1236 75.4137 80.5436 75.6012 80.9675 75.6012C81.2735 75.6012 81.5833 75.5027 81.8437 75.3C82.4634 74.8169 82.5736 73.9246 82.0889 73.305C80.6767 71.5015 78.0556 71.1813 76.2461 72.5908C75.6265 73.0739 75.5163 73.9662 76.0009 74.5857C76.4856 75.2053 77.3809 75.3132 78.0024 74.8301Z" fill="#FF699F"/>
<path d="M61.6128 70.8004C60.9932 71.2835 60.883 72.1758 61.3676 72.7953C61.8523 73.4129 62.7476 73.5228 63.3691 73.0397C63.9393 72.5964 64.7642 72.6968 65.209 73.2651C65.4903 73.6232 65.9084 73.8108 66.3342 73.8108C66.6402 73.8108 66.95 73.7123 67.2104 73.5095C67.8301 73.0264 67.9403 72.1341 67.4556 71.5146C66.0434 69.7129 63.4223 69.3927 61.6128 70.8004Z" fill="#FF699F"/>
<path d="M74.0187 79.5288L65.8323 78.5266C65.2602 78.4565 64.6938 78.6137 64.2376 78.968C63.2132 79.7656 63.4526 80.8379 63.2607 81.7245C62.5745 87.2888 69.0027 90.824 73.3687 87.4252C75.9917 85.3829 75.7294 82.5657 75.9005 81.9311C76.0449 80.7508 75.201 79.6728 74.0187 79.5288ZM71.6124 85.184C70.8902 85.7466 69.9892 85.9948 69.0788 85.8849C67.1952 85.6538 65.8571 83.9487 66.0889 82.0694L66.1669 81.4309L72.9847 82.2645C72.903 82.5676 73.0285 84.0813 71.6124 85.184Z" fill="#FF699F"/>
<path d="M96.6485 48.7821C95.5993 47.4446 94.092 46.5939 92.4023 46.3874L72.8135 43.9908C72.0817 43.9018 71.4146 43.5058 70.9793 42.9034C69.6222 41.0278 67.7785 39.5728 65.644 38.6956C64.916 38.3963 64.0835 38.7411 63.7832 39.4667C63.4829 40.1923 63.8288 41.0221 64.5568 41.3214C66.199 41.9959 67.6188 43.1175 68.6642 44.5649C69.5614 45.8058 70.947 46.6261 72.4638 46.8099L92.0526 49.2065C93.9799 49.4433 95.356 51.1976 95.1203 53.1187L92.9554 70.698L90.7943 70.4328L91.1345 67.6649C91.4177 65.3706 89.7736 63.2734 87.4718 62.993L59.7366 59.6018C57.1307 59.2835 54.827 57.9535 53.2494 55.8601C51.6737 53.7666 51.0389 51.1882 51.4589 48.5983C52.1375 44.4341 55.555 41.1718 59.7727 40.6659C60.5539 40.5731 61.1127 39.8645 61.0177 39.0859C60.9245 38.3072 60.2137 37.7502 59.4325 37.845C53.9622 38.5005 49.5259 42.7348 48.644 48.1436C48.0966 51.5045 48.9215 54.8503 50.9686 57.567C52.7267 59.9011 55.1824 61.5001 57.9841 62.1689L56.0055 78.225C55.7413 80.3639 55.8876 82.4972 56.4407 84.5641C56.6099 85.2007 57.1877 85.6194 57.8168 85.6194C57.9385 85.6194 58.062 85.6042 58.1837 85.572C58.944 85.3693 59.3982 84.5925 59.1949 83.8328C58.7368 82.1164 58.6151 80.3469 58.8356 78.5698L60.8048 62.597L87.1259 65.8177C87.8672 65.9087 88.3975 66.585 88.3063 67.3239L87.7912 71.5013C87.7455 71.8745 87.8501 72.2515 88.082 72.549C88.3158 72.8464 88.656 73.0378 89.0323 73.0851L93.1075 73.5834C93.2804 73.6042 93.4477 73.6497 93.6074 73.7103C94.495 74.0514 95.031 74.9418 94.9151 75.889C94.7877 76.9254 93.9039 77.7078 92.8585 77.7078C92.7767 77.7078 92.6893 77.7021 92.6019 77.6926L88.5267 77.1925C88.1504 77.147 87.7741 77.2512 87.4756 77.4824C87.1772 77.7135 86.9853 78.0545 86.9377 78.4296L86.5025 81.9572C86.0482 85.6402 84.1836 88.9272 81.2489 91.212C78.3161 93.4968 74.6667 94.5066 70.9698 94.0538C69.0311 93.817 67.2026 93.1956 65.5376 92.2048C63.9258 91.248 62.5458 89.9957 61.432 88.4858C60.9663 87.853 60.073 87.7166 59.4401 88.1808C58.8052 88.6449 58.6684 89.5354 59.134 90.1662C60.4741 91.985 62.1372 93.4911 64.0778 94.643C66.0869 95.8366 68.2879 96.5868 70.6239 96.871C71.3195 96.9562 72.0133 96.9979 72.7033 96.9979C76.4268 96.9979 80.0229 95.7703 83.0052 93.4476C86.5386 90.6948 88.7852 86.7371 89.3326 82.3001L89.593 80.1839C92.1381 80.4852 92.3358 80.5477 92.8585 80.5477C95.3389 80.5477 97.4411 78.693 97.7433 76.2339C97.9695 74.4 97.1617 72.6532 95.7115 71.632L97.9486 53.4654C98.1596 51.783 97.6958 50.1196 96.6485 48.7821Z" fill="#FF699F"/>
<path d="M76.4666 18.2386C77.2534 18.2386 77.8921 17.602 77.8921 16.8177V13.3394C77.8921 12.555 77.2534 11.9185 76.4666 11.9185C75.6797 11.9185 75.041 12.555 75.041 13.3394V16.8177C75.041 17.602 75.6778 18.2386 76.4666 18.2386Z" fill="#FF699F"/>
<path d="M76.4666 28.9315C77.2534 28.9315 77.8921 28.2949 77.8921 27.5106V24.0322C77.8921 23.2479 77.2534 22.6113 76.4666 22.6113C75.6797 22.6113 75.041 23.2479 75.041 24.0322V27.5106C75.041 28.2949 75.6778 28.9315 76.4666 28.9315Z" fill="#FF699F"/>
<path d="M80.0857 21.8457H83.5754C84.3623 21.8457 85.001 21.2091 85.001 20.4248C85.001 19.6405 84.3623 19.0039 83.5754 19.0039H80.0857C79.2988 19.0039 78.6602 19.6405 78.6602 20.4248C78.6602 21.2091 79.2969 21.8457 80.0857 21.8457Z" fill="#FF699F"/>
<path d="M69.3582 21.8457H72.8479C73.6348 21.8457 74.2734 21.2091 74.2734 20.4248C74.2734 19.6405 73.6348 19.0039 72.8479 19.0039H69.3582C68.5713 19.0039 67.9326 19.6405 67.9326 20.4248C67.9326 21.2091 68.5713 21.8457 69.3582 21.8457Z" fill="#FF699F"/>
<path d="M25.5334 68.0684C24.7466 68.0684 24.1079 68.7049 24.1079 69.4893V72.9676C24.1079 73.7519 24.7466 74.3885 25.5334 74.3885C26.3203 74.3885 26.959 73.7519 26.959 72.9676V69.4893C26.959 68.703 26.3203 68.0684 25.5334 68.0684Z" fill="#FF699F"/>
<path d="M25.5334 78.7593C24.7466 78.7593 24.1079 79.3958 24.1079 80.1802V83.6585C24.1079 84.4429 24.7466 85.0794 25.5334 85.0794C26.3203 85.0794 26.959 84.4429 26.959 83.6585V80.1802C26.959 79.3958 26.3203 78.7593 25.5334 78.7593Z" fill="#FF699F"/>
<path d="M32.6418 75.1523H29.1521C28.3652 75.1523 27.7266 75.7889 27.7266 76.5732C27.7266 77.3576 28.3652 77.9941 29.1521 77.9941H32.6418C33.4287 77.9941 34.0674 77.3576 34.0674 76.5732C34.0674 75.7889 33.4287 75.1523 32.6418 75.1523Z" fill="#FF699F"/>
<path d="M21.9143 75.1523H18.4246C17.6377 75.1523 16.999 75.7889 16.999 76.5732C16.999 77.3576 17.6377 77.9941 18.4246 77.9941H21.9143C22.7012 77.9941 23.3398 77.3576 23.3398 76.5732C23.3398 75.7889 22.7012 75.1523 21.9143 75.1523Z" fill="#FF699F"/>
</g>
<defs>
<filter id="filter0_d" x="-0.000488281" y="-0.000488281" width="101.999" height="104.998" filterUnits="userSpaceOnUse" color-interpolation-filters="sRGB">
<feFlood flood-opacity="0" result="BackgroundImageFix"/>
<feColorMatrix in="SourceAlpha" type="matrix" values="0 0 0 0 0 0 0 0 0 0 0 0 0 0 0 0 0 0 127 0"/>
<feOffset dy="4"/>
<feGaussianBlur stdDeviation="2"/>
<feColorMatrix type="matrix" values="0 0 0 0 0 0 0 0 0 0 0 0 0 0 0 0 0 0 0.25 0"/>
<feBlend mode="normal" in2="BackgroundImageFix" result="effect1_dropShadow"/>
<feBlend mode="normal" in="SourceGraphic" in2="effect1_dropShadow" result="shape"/>
</filter>
</defs>
</svg>
